<svg width="30" height="27" viewBox="0 0 30 27" fill="none" xmlns="http://www.w3.org/2000/svg">
<path d="M1 1H9.1C10.5322 1 11.9057 1.56893 12.9184 2.58162C13.9311 3.59432 14.5 4.96783 14.5 6.4V25.3C14.5 24.2259 14.0733 23.1957 13.3138 22.4362C12.5543 21.6767 11.5241 21.25 10.45 21.25H1V1Z" stroke="black" stroke-width="2" stroke-linecap="round" stroke-linejoin="round"/>
<path d="M28.002 1H19.902C18.4698 1 17.0963 1.56893 16.0836 2.58162C15.0709 3.59432 14.502 4.96783 14.502 6.4V25.3C14.502 24.2259 14.9286 23.1957 15.6882 22.4362C16.4477 21.6767 17.4778 21.25 18.552 21.25H28.002V1Z" stroke="black" stroke-width="2" stroke-linecap="round" stroke-linejoin="round"/>
</svg>
