<svg width="27" height="25" viewBox="0 0 27 25" fill="none" xmlns="http://www.w3.org/2000/svg">
<path d="M5.83325 8.94543V1H20.3333V8.94543" stroke="black" stroke-width="2" stroke-linecap="round" stroke-linejoin="round"/>
<path d="M5.83333 19.1609H3.41667C2.77573 19.1609 2.16104 18.9217 1.70783 18.496C1.25461 18.0703 1 17.4929 1 16.8908V11.2155C1 10.6134 1.25461 10.036 1.70783 9.61028C2.16104 9.18455 2.77573 8.94537 3.41667 8.94537H22.75C23.3909 8.94537 24.0056 9.18455 24.4588 9.61028C24.9121 10.036 25.1667 10.6134 25.1667 11.2155V16.8908C25.1667 17.4929 24.9121 18.0703 24.4588 18.496C24.0056 18.9217 23.3909 19.1609 22.75 19.1609H20.3333" stroke="black" stroke-width="2" stroke-linecap="round" stroke-linejoin="round"/>
<path d="M20.3333 14.6207H5.83325V23.7012H20.3333V14.6207Z" stroke="black" stroke-width="2" stroke-linecap="round" stroke-linejoin="round"/>
</svg>
